HIERARCHY
ROOT Hips
{
	OFFSET 0.000000 0.000000 0.000000 
	CHANNELS 6 Xposition Yposition Zposition Zrotation Yrotation Xrotation
	JOINT LeftUpLeg
	{
		OFFSET 1.363060 -1.794630 0.839290 
		CHANNELS 3 Zrotation Yrotation Xrotation
		JOINT LeftLeg
		{
			OFFSET 2.448110 -6.726130 0.000000 
			CHANNELS 3 Zrotation Yrotation Xrotation
			JOINT LeftFoot
			{
				OFFSET 2.562200 -7.039590 0.000000 
				CHANNELS 3 Zrotation Yrotation Xrotation
				JOINT LeftToeBase
				{
					OFFSET 0.157640 -0.433110 2.322550 
					CHANNELS 3 Zrotation Yrotation Xrotation
					End Site
					{
						OFFSET 0.000000 0.000000 0.000000 
					}
				}
			}
		}
	}
	JOINT RightUpLeg
	{
		OFFSET -1.305520 -1.794630 0.839290 
		CHANNELS 3 Zrotation Yrotation Xrotation
		JOINT RightLeg
		{
			OFFSET -2.542530 -6.985550 0.000000 
			CHANNELS 3 Zrotation Yrotation Xrotation
			JOINT RightFoot
			{
				OFFSET -2.568260 -7.056230 0.000000 
				CHANNELS 3 Zrotation Yrotation Xrotation
				JOINT RightToeBase
				{
					OFFSET -0.164730 -0.452590 2.363150 
					CHANNELS 3 Zrotation Yrotation Xrotation
					End Site
					{
						OFFSET 0.000000 0.000000 0.000000 
					}
				}
			}
		}
	}
	JOINT Spine
	{
		OFFSET 0.028270 2.035590 -0.193380 
		CHANNELS 3 Zrotation Yrotation Xrotation
		JOINT Spine1
		{
			OFFSET 0.056720 2.048850 -0.042750 
			CHANNELS 3 Zrotation Yrotation Xrotation
			JOINT Neck1
			{
				OFFSET -0.054170 1.746240 0.172020 
				CHANNELS 3 Zrotation Yrotation Xrotation
				JOINT Head
				{
					OFFSET 0.104070 1.761360 -0.123970 
					CHANNELS 3 Zrotation Yrotation Xrotation
					End Site
					{
						OFFSET 0.000000 0.000000 0.000000 
					}
				}
			}
			JOINT LeftArm
			{
				OFFSET 3.362410 1.200890 -0.311210 
				CHANNELS 3 Zrotation Yrotation Xrotation
				JOINT LeftForeArm
				{
					OFFSET 4.983000 -0.000000 -0.000000 
					CHANNELS 3 Zrotation Yrotation Xrotation
					JOINT LeftHand
					{
						OFFSET 3.483560 -0.000000 -0.000000 
						CHANNELS 3 Zrotation Yrotation Xrotation
						JOINT LeftHandIndex1
						{
							OFFSET 0.715260 -0.000000 -0.000000 
							CHANNELS 3 Zrotation Yrotation Xrotation
							End Site
							{
								OFFSET 0.000000 0.000000 0.000000 
							}
						}
					}
				}
			}
			JOINT RightArm
			{
				OFFSET -3.136600 1.374050 -0.404650 
				CHANNELS 3 Zrotation Yrotation Xrotation
				JOINT RightForeArm
				{
					OFFSET -5.241900 -0.000000 -0.000000 
					CHANNELS 3 Zrotation Yrotation Xrotation
					JOINT RightHand
					{
						OFFSET -3.444170 -0.000000 -0.000000 
						CHANNELS 3 Zrotation Yrotation Xrotation
						JOINT RightHandIndex1
						{
							OFFSET -0.622530 -0.000000 -0.000000 
							CHANNELS 3 Zrotation Yrotation Xrotation
							End Site
							{
								OFFSET 0.000000 0.000000 0.000000 
							}
						}
					}
				}
			}
		}
	}
}
MOTION
Frames: 15
Frame Time: 0.041667
0.738353 17.713055 -24.816934 4.373040 7.314714 1.161967 -29.336124 0.246820 -10.903823 0.676088 6.262091 17.618968 1.599150 -16.950936 -2.557460 0.040200 1.294200 3.558700 18.342228 -0.744238 -18.628899 -12.055770 -18.488672 67.076491 0.754133 -8.340103 -8.585963 -0.784200 -5.653400 15.781900 -0.051466 -0.963639 -1.349988 5.147004 -0.775361 -2.127151 5.496406 -3.113837 6.579233 0.526700 -1.404400 6.972100 -86.291577 4.829457 23.813815 14.958564 -24.625142 -2.933479 0.441994 -0.022697 7.657389 -7.125000 0.000000 0.000000 83.270581 -1.989543 7.331053 -11.795163 20.796216 -1.592731 1.151297 0.705376 -22.526899 7.125000 0.000000 0.000000 
0.753901 17.690089 -24.722734 4.537529 7.546855 0.824962 -29.633364 0.372321 -10.646266 0.756968 6.511906 18.333654 1.670342 -16.946577 -3.427819 0.027900 1.077600 2.962200 17.940775 -0.315592 -19.161697 -11.991869 -18.481536 66.885639 0.721427 -8.227614 -9.169800 -0.968900 -6.266900 17.560900 -0.102265 -1.107408 -1.424510 5.020214 -0.810501 -2.495751 5.309826 -3.088899 6.091625 0.426900 -1.425800 6.586000 -86.056399 4.909271 23.898616 15.206525 -24.962409 -3.030404 0.438733 -0.012332 7.518055 -7.125000 0.000000 0.000000 83.092581 -2.223961 7.616944 -11.839806 20.845630 -1.590565 1.160880 0.700103 -23.060658 7.125000 0.000000 0.000000 
0.765993 17.667632 -24.630669 5.085038 8.001731 0.655638 -30.320740 0.290447 -10.202574 0.818387 6.682491 18.830104 1.709206 -16.986864 -3.961462 0.024900 1.019600 2.802600 17.065998 -0.269263 -19.665457 -11.899904 -18.453981 66.601786 0.673628 -8.099994 -10.079695 -0.781300 -5.643200 15.752700 -0.215700 -1.301716 -1.487433 4.987949 -0.886925 -2.798472 5.682291 -3.088214 6.485454 0.619300 -1.384100 6.767300 -85.686933 4.187700 24.183429 14.988260 -24.623674 -2.935726 0.437477 -0.010796 7.345818 -7.125000 0.000000 0.000000 83.113335 -2.649084 7.648843 -12.169976 21.410747 -1.735721 1.145879 0.711094 -23.375017 7.125000 0.000000 0.000000 
0.768940 17.653202 -24.545412 4.678840 8.069740 0.437173 -29.870760 0.246570 -9.893051 0.880949 6.847741 19.312612 1.769566 -17.186408 -4.507396 0.177100 2.710900 7.475000 17.459691 0.393384 -20.221423 -11.744068 -18.418604 66.123534 0.658021 -8.168396 -10.805412 -0.602700 -4.969600 13.821900 -0.186371 -1.409766 -1.480303 4.835481 -0.935635 -2.872575 5.532122 -3.169718 6.245454 0.501100 -1.436700 6.610100 -85.539012 3.494083 23.901979 14.978892 -24.600785 -2.914431 0.437626 -0.008254 7.605193 -7.125000 0.000000 0.000000 83.042668 -2.531079 8.096153 -12.457396 21.895615 -1.855423 1.139548 0.717925 -23.557574 7.125000 0.000000 0.000000 
0.785199 17.642431 -24.455988 5.018833 8.428148 0.447046 -30.340428 -0.139217 -9.654194 0.937209 7.054404 19.916776 1.746595 -16.539410 -4.553519 0.044800 1.366700 3.758500 16.790468 0.784329 -21.034241 -11.564091 -18.360971 65.558018 0.589660 -7.907663 -11.481494 -0.561800 -4.800700 13.340900 -0.216258 -1.597544 -1.508169 4.914864 -1.028666 -2.871802 5.797562 -3.379609 6.636160 0.590900 -1.499500 6.764600 -85.501075 2.995146 23.952333 15.001324 -24.646630 -2.933742 0.438105 -0.010819 7.246782 -7.125000 0.000000 0.000000 82.818419 -2.733094 8.583809 -12.769855 22.423410 -1.984568 1.140829 0.718606 -24.194673 7.125000 0.000000 0.000000 
0.788349 17.624851 -24.366971 4.601170 8.479459 0.068362 -29.949284 -0.324636 -9.374062 1.014078 7.335002 20.720590 1.808127 -15.719711 -5.489360 0.011800 0.701100 1.926700 17.212017 1.344304 -21.331193 -11.333028 -18.278617 64.825261 0.665225 -8.452027 -11.627621 -0.625000 -5.058800 14.076400 -0.113703 -1.648780 -1.474659 5.100463 -1.060924 -2.892374 5.778682 -3.401860 6.538424 0.639900 -1.531000 6.712000 -85.643569 2.328321 23.920755 15.037192 -24.711421 -2.953838 0.437184 -0.009420 7.098979 -7.125000 0.000000 0.000000 82.420482 -2.899379 9.695082 -13.267912 23.238122 -2.201433 1.132387 0.731120 -25.247845 7.125000 0.000000 0.000000 
0.794548 17.619059 -24.282730 4.934230 8.798335 0.223276 -30.360242 -0.681994 -9.012132 1.043321 7.452478 21.047088 1.854790 -15.287961 -6.233134 0.002100 0.293100 0.805300 16.575274 1.786219 -22.141318 -11.106787 -18.197031 64.104028 0.568524 -8.011725 -12.233533 -0.641900 -5.125500 14.266900 -0.160161 -1.655953 -1.496597 5.180986 -1.058812 -2.846852 5.415706 -3.656044 6.530463 0.394700 -1.672500 6.671300 -85.466400 1.475255 24.429676 14.898364 -24.525413 -2.895360 0.438873 -0.007846 6.947743 -7.125000 0.000000 0.000000 82.465476 -2.788368 8.909202 -13.428398 23.513800 -2.279108 1.127052 0.729031 -24.840914 7.125000 0.000000 0.000000 
0.796783 17.602800 -24.200827 4.771347 8.902373 0.095757 -30.216609 -0.915852 -8.732064 1.130827 7.628764 21.590871 1.845891 -15.789525 -5.939782 0.058500 1.560400 4.292200 16.606250 2.354236 -22.688016 -10.852960 -18.098842 63.289272 0.545814 -7.994181 -12.617138 -0.598600 -4.952800 13.773900 -0.137728 -1.885459 -1.415962 5.167844 -1.205230 -2.545796 5.924101 -3.518147 6.828676 0.677000 -1.559100 6.851200 -85.429397 0.592464 24.142017 14.996821 -24.682565 -2.928909 0.442067 -0.007837 6.934881 -7.125000 0.000000 0.000000 82.358630 -2.463240 9.761639 -13.808270 24.141726 -2.454971 1.118694 0.745333 -25.607307 7.125000 0.000000 0.000000 
0.814058 17.577192 -24.111302 5.110817 9.229104 -0.107315 -30.846741 -1.188119 -8.525245 1.175433 7.814453 22.126934 1.838812 -14.767125 -6.459837 0.030700 1.130400 3.107700 15.907097 2.531963 -23.112338 -10.596242 -17.979662 62.449276 0.487758 -7.795174 -13.113096 -0.464400 -4.371000 12.122900 -0.202060 -2.020794 -1.470329 5.083698 -1.247134 -2.832383 5.954978 -3.568725 6.857177 0.669800 -1.577900 6.780300 -85.274877 0.189732 24.320085 14.928743 -24.565134 -2.890992 0.440540 -0.006686 6.708486 -7.125000 0.000000 0.000000 82.316302 -2.529783 9.406286 -13.946172 24.373098 -2.529797 1.119152 0.727115 -25.371713 7.125000 0.000000 0.000000 
0.816802 17.568758 -24.019846 4.660438 9.268365 -0.212177 -30.421303 -1.527315 -8.062865 1.214802 7.940990 22.520710 1.806982 -14.195853 -6.446470 0.101900 2.058500 5.667300 16.292643 3.307692 -23.556059 -10.279884 -17.843453 61.418870 0.493166 -7.955354 -13.442735 -0.459800 -4.349800 12.063000 -0.114797 -2.123013 -1.426532 5.108073 -1.318230 -2.629544 5.623854 -3.372095 6.993045 0.514600 -1.497300 6.930700 -85.294749 -0.579908 24.314265 14.980009 -24.664084 -2.927061 0.443061 -0.005707 6.081314 -7.125000 0.000000 0.000000 82.121662 -2.363962 10.187345 -14.375572 25.049476 -2.727739 1.114025 0.736535 -26.109992 7.125000 0.000000 0.000000 
0.824220 17.561137 -23.935706 4.708877 9.697152 -0.167984 -30.548111 -1.977883 -7.697982 1.252296 8.019087 22.767186 1.806722 -14.288583 -6.427959 0.230100 3.087300 8.522000 15.948098 3.578692 -24.160683 -9.948807 -17.679163 60.318215 0.388367 -7.537097 -14.124738 -0.458100 -4.342000 12.040700 -0.120355 -2.332616 -1.511059 5.077339 -1.398935 -2.859892 5.559151 -3.488103 7.022237 0.448700 -1.553900 6.834500 -85.217686 -0.939203 24.477530 15.049992 -24.760014 -2.954477 0.441540 -0.004683 6.003590 -7.125000 0.000000 0.000000 82.109650 -2.350624 10.168771 -14.547950 25.306560 -2.802579 1.115997 0.729471 -25.972131 7.125000 0.000000 0.000000 
0.831435 17.559003 -23.845978 4.769740 9.649687 -0.175591 -30.796017 -2.810077 -7.198559 1.283308 8.192437 23.261096 1.785234 -12.980925 -7.133970 0.211000 2.957500 8.160600 15.639967 4.085540 -24.753476 -9.596003 -17.496738 59.133435 0.377507 -7.549349 -14.283463 -0.359000 -3.849000 10.652200 -0.105784 -2.424752 -1.533801 5.218371 -1.450803 -2.822646 6.081561 -3.357281 7.359695 0.751000 -1.448200 6.962400 -85.282524 -1.538586 24.304078 14.975648 -24.662930 -2.923462 0.441959 -0.008065 6.327998 -7.125000 0.000000 0.000000 81.997731 -2.549800 10.572020 -14.997191 26.013000 -3.037993 1.097059 0.744799 -26.115824 7.125000 0.000000 0.000000 
0.843222 17.540203 -23.764684 4.595366 9.854338 -0.335836 -30.806040 -3.037605 -6.964705 1.303084 8.302633 23.582595 1.746612 -12.024352 -7.502287 0.170400 2.659600 7.332500 15.589494 4.361786 -25.093943 -9.238311 -17.292732 57.909934 0.329655 -7.367401 -14.569469 -0.376100 -3.938900 10.904900 -0.058398 -2.444456 -1.556424 5.246178 -1.448894 -3.005816 5.745541 -3.536918 7.455937 0.560200 -1.553900 6.986900 -85.346308 -2.066704 24.793354 15.070367 -24.795388 -2.958834 0.439877 -0.007619 6.241815 -7.125000 0.000000 0.000000 81.930211 -2.408916 10.126397 -15.233805 26.372104 -3.153690 1.100259 0.726317 -25.825228 7.125000 0.000000 0.000000 
0.850640 17.549451 -23.669062 4.462972 10.007870 -0.364251 -30.774211 -3.053626 -6.554681 1.317164 8.326729 23.667782 1.752941 -12.002937 -7.600060 0.244700 3.183500 8.790000 15.521842 4.815994 -25.481636 -8.857215 -17.069039 56.595116 0.311800 -7.373955 -14.823735 -0.369400 -3.904100 10.807000 0.029900 -2.571651 -1.533174 5.491430 -1.527835 -2.828707 5.426528 -3.436786 7.638729 0.421200 -1.525000 7.099500 -85.494250 -2.631536 24.828725 15.152217 -24.955159 -3.021570 0.441224 -0.010627 5.917187 -7.125000 0.000000 0.000000 81.629897 -2.277945 10.663834 -15.608109 26.936779 -3.342428 1.094110 0.731277 -26.010512 7.125000 0.000000 0.000000 
0.853689 17.537663 -23.593357 4.233535 9.837511 -0.457623 -30.707231 -3.533090 -6.126736 1.290167 8.346752 23.721053 1.670786 -10.776543 -7.841553 0.261600 3.290300 9.088000 15.606545 5.602966 -25.826603 -8.472246 -16.836556 55.256540 0.291173 -7.450896 -15.292709 -0.239700 -3.150800 8.698900 0.065356 -2.496528 -1.556888 5.512079 -1.477510 -3.023407 5.819100 -3.489965 7.199030 0.617400 -1.545400 6.825700 -85.566467 -3.167041 25.109098 15.176898 -24.973402 -3.010373 0.439113 -0.004914 5.875963 -7.125000 0.000000 0.000000 81.509157 -2.019363 10.703147 -15.795129 27.222340 -3.458636 1.077658 0.735686 -25.896558 7.125000 0.000000 0.000000 
